<svg xmlns="http://www.w3.org/2000/svg" id="Layer_1" width="229" height="72" x="0" y="0" version="1.1" viewBox="0 0 229 72" xml:space="preserve"><style>.st1{fill:#1e407c}</style><g id="_Group_2"><g id="_Group_3"><path id="_Compound_Path_" fill="#fff" d="M32.6 72C18.2 63.4 0 51 0 28.9V5.7C6.6 3.2 16.9 0 32.6 0c11.1-.1 22.2 1.8 32.6 5.7v23.2c0 22.2-18.9 35-32.6 43.1z"/></g><g id="_Group_4"><path id="_Compound_Path_2" d="M42.4 41.8c0-.5.4-1.3.4-2s-1-1-1.8-1.1c-1.6-.2-2.2-.1-2.2-.5.1-.4.2-.7.5-.9.5-.6 1.2-.9 2-1 .8-.1 1.7-.2 2.5-.2s1.6.1 2.4.2c1 .2 1.2.6 1.2 1.1v.5c-.1.5-.6.9-1.1.9l-.5.1c-.6 0-1.1.3-1.3.8-.5 1.4-1.3 2.4-1.9 2.4-.2 0-.3-.1-.2-.3zm1.4-21.9c-.2 0-.3-.2-.2-.4.1-.4.3-.7.5-1 .8-1.1 2-2.4 2.3-2.4.3.1.5.3.6.6.2.4.3.8.3 1.2 0 1.3-.5 2.6-1.3 3.6-.7-.7-1.4-1.2-2.2-1.6zm-23.9 2.6c.5-.1.9-.4 1.2-.9 1.2-1.4 2.5-1.6 2.5-2.1 0-.3-.2-.6-.3-.8-1-1.5-1.9-3.1-2.7-4.7-.2-.4-.6-.7-1-.9-.5.1-1 .5-1.2 1-.4.6-.7 1.3-.8 2 0 1.4.3 2.7.7 4 .4 1.3 1 2.4 1.6 2.4zm14.9 4.8c-.2-1.3-1.3-2.2-2.6-2.1-1.3 0-2.4.8-2.9 2 .4.9 1.2 1.6 2.1 1.8.2.1.4.1.4.2 0 .2-.2.3-.7.3-1.1.1-2.2-.4-3-1.2-.5.1-1 .2-1.5.2-.3 0-.6-.2-.7-.6 0-.3.1-.7.2-1l.3-.5c.4-1 1.1-1.9 2-2.4l.8-.5c.7-.4 1.6-.7 2.5-.6h.7c.8-.1 1.7.2 2.3.8 1.1.9 1.6 1.4 1.6 2A3.22 3.22 0 0134 29c-.1 0-.2 0-.2-.1v-.1c0-.1.1-.2.2-.2.4-.4.6-.8.8-1.3zM42 50.2c-1.1.2-2.2.3-3.3.2-3.7 0-4.3-.9-4.3-1.6 0-1.2 5.3-2 7.4-2s2.9.6 2.9 1.1c-.4 1.2-1.5 2.1-2.7 2.3zM20.6 61c3.8 2.9 7.8 5.6 12 8.1 0-3.6-.1-5.8 2.4-8.3l3-3.1c.4-.6 1-1 1.6-1.3.3 0 .3.1.3.4.1 1 .3 2.1.8 3 .5 1.1 1.5 1.9 2.7 2.1 10.5-8 19.3-18.3 19.3-33V7.4c-2.6-.9-13.2-5-30.1-5S5.1 6.6 2.5 7.4v21.5c0 6 1.5 11.8 4.5 17 .3-3 2.3-4.4 2.3-7.3 0-2-.6-3.3-.6-5 0-3.1 4.2-9.4 6.3-12 .1-.1.2-.2.4-.3.2 0 .3.1.4.2.1.3.3.5.5.5s.3-.1.3-.3v-.1c-.4-1.6-.7-3.3-.6-5 0-2.5.6-3 2.1-4.5.5-.6 1.2-1 2-1.1.8.1 1.5.5 1.9 1.1.9.9 1.7 1.9 2.5 2.9 0 .1.1.1.2.1.4 0 .8-.1 2.7-.1 3.8 0 7.6.4 11.3 1.4.7.3 1.3.5 2 .8.1 0 .2 0 .2-.1V17c-.2-.2-.3-.4-.4-.6 0-.1.1-.3.2-.3 2-1.1 3.7-1.9 5.2-1.9.9 0 1.3.8 1.7 1.6.4.7.6 1.4.6 2.2 0 1.6-.5 3.1-1.4 4.3.3.3.7.8 1 1.1.6.6.9 1.3 1 2.1 0 .4-.1.9-.2 1.3 0 .3-.2.5-.5.5s-.4-.3-.4-.6v-.2c0-1.6-1.2-2.9-2.7-3.2h-.2c-.8 0-1.6.3-2.1.9-.4.4-.7.9-.7 1.5.1.5.3 1 .6 1.5.2.4.7 1.3 1 1.8.2.4.5.6.9.6.9 0 1.6-.1 1.6-.4 0-.1 0-.1-.2-.1h-.2c-1.1 0-1.7-1.4-2.3-2.7.4-.5 1.1-.8 1.8-.8.9-.1 1.8.6 1.8 1.6v.1c0 .4-.1.7-.2 1.1 0 .1-.1.1-.1.2s.2.2.5.2l.4.1c.4.1.7.4.8.8.1.3.3.9.4 1 .3.7.5 1.5.5 2.3 0 .8-.1 1.5-.3 2.3-.3.8-.5 1.6-.6 2.5.1.1.1.3.2.4.3.6.4 1.3.4 2v.7c0 1.1-.4 2.1-1.1 3-.4.6-1 1.4-1.4 1.8-.2.3-.5.5-.9.5-.2 0-.4 0-.5-.1l-.9-.2c-.6-.2-1.1-.7-1.3-1.3V44c-.2-.5-.3-.8-.6-.8s-.5.2-.6.5c-.5 1-1.4 1.7-2.5 1.9l-1.8.4c-1 .3-2 .5-3 .5h-.5c-1.3-.1-2.5-.7-3.2-1.8-1.8-2.2-1.7-2.5-1.8-5.5.1-.3-.1-.7-.5-.7-.3 0-.4.6-.6 1.5-.1 1.1-.4 2.1-.9 2.1-.4 0-.8-.1-1.2-.3l-3.2-1c-1.2-.4-2.4-.7-2.8-1.8l-.8-1.9c0-.3-.2-.5-.5-.5-.2.1-.4.4-.4.7 0 .5-.1 1.1-.2 1.6 0 1.5-.6 2.9-1.5 4.1-.4.5-.8 1.1-1.2 1.7a6.62 6.62 0 00-1.4 4.9V51c0 3.5.9 5.2 6.9 10z" class="st1"/><path id="_Compound_Path_3" fill="#96bee6" d="M48.5 29.7c.1.3.3.9.4 1 .3.7.5 1.5.5 2.3 0 .8-.1 1.5-.3 2.3-.3.8-.4 1.6-.5 2.5-.1-.2-1.9-3.3-2-3.6-.2-.2-.2-.5-.3-.8 0-.3.2-.6.5-.8.2-.1.5-.3.7-.4.7-.3 1.2-.9 1.2-1.7 0-.2-.1-.5-.2-.8zm-7.8 5c.1.2.2.5.2.7 0 .3-.1.7-.4.9l-.5.5c-.3.1-.5.3-.6.5-.3.3-.4.6-.5.9 0 .1 0 .1.1.2-.3-.2-.5-.6-.5-1 0-.3.1-.5.1-.8 0-.2-.1-.4-.1-.6-.5-1.7-1.3-3.7-1.9-5-.5-1.3-1-2.1-1.5-2.1-.3 0-.6.2-1 .2.7-.1 1.3-.5 1.7-1.1.5-.6.7-1.3.6-2.1 0-.3-.1-.7-.4-.9.7.8 1.3 1.8 1.8 2.9 1 2.3 2 4.9 2.9 6.8zM13.7 51v-1.5c-.1-1.7.4-3.5 1.4-4.9l1.2-1.7c.9-1.2 1.5-2.6 1.5-4.1 0-.5.1-1.1.2-1.6-.1-.3.1-.6.4-.7.3 0 .3.2.5.5l.8 1.9c.5 1.1 1.6 1.4 2.8 1.8l3.2 1.1c.4.1.8.2 1.2.2.5 0 .8-1.1.9-2.1.1-.9.2-1.5.6-1.5.3.1.5.4.5.7.1 3-.1 3.3 1.8 5.5.7 1.1 1.9 1.8 3.2 1.8-.6-.2-1-.9-.9-1.5v-1.1c0-.6.1-1.2.3-1.7l.4-1.1c.2-.3.2-.7.2-1-.1-.6-.2-1.2-.5-1.8-.2-.5-.4-1.2-.6-1.8-.7-1.9-1-2.3-3.2-2.6l-4.5-.6c-2.5-.4-4.5-.5-5.5-2.2-1.2-2-1.1-4.5-2.3-4.5-.6 0-.9.6-.9 1.5s.4 2.5.4 5.2c.2 1.7-.4 3.4-1.6 4.7l-1.1 1.5c-1 1.3-1.5 2-1.4 3.5.1 2.7.4 5.4 1 8.1zm25.6 9c.1-.9.5-2.5.5-3.1 0-.3-.1-.4-.3-.4-.6.3-1.2.7-1.6 1.3l-3 3.1c-2.4 2.5-2.3 4.6-2.3 8.2 2.7-1.6 5.2-3.2 7.1-4.5-.4-1.6-.5-3.2-.4-4.6z"/></g></g><path id="_Compound_Path_4" d="M217.4 21.4h11.1c0-5.7-2.8-9-7.6-9s-7.9 3.2-7.9 8.2c0 1.9.6 8.1 8.6 8.1 2 .1 3.9-.3 5.7-1v-2.9c-1.5.6-3.1 1-4.8.9-3 .1-5-1.7-5.1-4.3zm-15.7-5.8h2.2v8.9c0 2.7 1.9 4.3 5 4.3 1.1 0 2.3-.2 3.4-.5v-2.7c-.6.1-1.2.2-1.7.2-1.9 0-2.7-.8-2.7-3v-7.2h4.3v-2.8h-4.3V9.4h-4v3.4h-2.2v2.8zm-12 .2c.8-.3 1.7-.5 2.6-.5 2.3 0 3.4 1 3.4 3.2v.9h-2.1c-5.2 0-8 1.7-8 5 0 2.7 2 4.5 5.2 4.5 2.1.1 4-.8 5.2-2.5h.1l.1 2.2h4.9v-2.8h-1.6v-7.1c0-4.1-2.4-6.1-7.1-6.1-2.1.1-4.1.6-5.9 1.6V18h3.3l-.1-2.2zm-16-.2h2.2v8.9c0 2.7 1.9 4.3 5 4.3 1.1 0 2.3-.2 3.4-.5v-2.7c-.6.1-1.2.2-1.7.2-1.9 0-2.7-.8-2.7-3v-7.2h4.3v-2.8h-4.3V9.4h-4v3.4h-2.2v2.8zM160.5 25v-2.7h-3.7v5.4c2.3.8 4.7 1.2 7.1 1.1 5.3 0 8.2-2.3 8.2-6.6s-3.2-5.5-6.2-6.3l-2.1-.6c-1.7-.4-2.6-1.3-2.6-2.8s1.1-2.7 3.6-2.7c.9 0 1.8.2 2.7.5V13h3.7V8.1c-2.1-.7-4.3-1.1-6.5-1.1-5 0-7.8 2.1-7.8 5.9 0 3.4 1.6 5.2 5.5 6.3l1.8.5c2.5.7 3.6 1.6 3.6 3.2 0 1.7-1.2 2.7-3.5 2.7-1.3 0-2.6-.2-3.8-.6zM102 21.4h11.1c0-5.7-2.8-9-7.6-9s-7.9 3.2-7.9 8.2c0 1.9.6 8.1 8.6 8.1 2 .1 3.9-.3 5.7-1v-2.9c-1.5.6-3.1 1-4.8.9-2.9.2-4.9-1.6-5.1-4.3zm24 7h7.5v-2.8h-1.8v-7c0-3.8-2.4-6.2-6-6.2-2-.1-3.9.8-5 2.5h-.1l-.1-2.1H115v2.8h2.1v10h-1.7v2.8h7.5v-2.8h-1.8v-6.3c0-2.3 1.2-3.6 3.4-3.6s3.4 1.3 3.4 3.6v6.3h-1.7l-.2 2.8zm-46.6 0h8.3v-2.8h-2v-5.4h3.4c4.8 0 7.7-2.4 7.7-6.4s-2.9-6.4-7.7-6.4h-9.6v2.8h2.1v15.4h-2.1l-.1 2.8zM192 26c-1.8 0-2.5-1.1-2.5-2.1 0-1.6 1.4-2.3 4.7-2.3h1.3v.2c.1 2.9-1.7 4.2-3.5 4.2zm25.3-7.2c.1-2.3 1.4-3.8 3.4-3.8 1.8-.1 3.3 1.4 3.4 3.2V18.8h-6.8zm-115.4 0c.2-2.3 1.6-3.7 3.5-3.7 1.8-.1 3.3 1.4 3.4 3.2V18.9l-6.9-.1zm-13.3-1.4h-3v-7.2h2.9c2.4 0 3.9 1.4 3.9 3.6s-1.4 3.6-3.8 3.6zm57.8 11h7.5v-2.8h-1.8v-7c0-3.8-2.4-6.2-6-6.2-2-.1-3.9.8-5 2.5h-.1l-.1-2.1h-5.6v2.8h2.1v10h-1.7v2.8h7.5v-2.8h-1.9v-6.3c0-2.3 1.2-3.6 3.4-3.6s3.4 1.3 3.4 3.6v6.3h-1.7v2.8zm-63.8 28l-4.2-16.8h2.3l2 8.5c.5 2.1.9 4.2 1.2 5.8.3-1.7.8-3.7 1.4-5.8l2.2-8.4h2.3l2 8.5c.5 2 .9 4 1.2 5.7.3-1.8.8-3.7 1.3-5.8l2.2-8.4h2.2l-4.6 16.8h-2.3l-2.1-8.7c-.5-1.8-.8-3.6-1.1-5.5-.3 1.8-.8 3.7-1.3 5.5l-2.4 8.7-2.3-.1zm28.3-6.2c0 4.4-3.1 6.4-6 6.4-3.3 0-5.8-2.4-5.8-6.2 0-4 2.6-6.4 6-6.4 3.4.1 5.8 2.6 5.8 6.2zm-9.6.2c0 2.6 1.5 4.6 3.7 4.6s3.7-2 3.7-4.7c0-2-1-4.6-3.6-4.6s-3.7 2.4-3.8 4.7zm12.3-2.3c0-1.4 0-2.6-.1-3.8h1.9v2.4h.1c.4-1.5 1.8-2.6 3.4-2.7.2 0 .4 0 .6.1v2.1c-.2-.1-.5-.1-.7-.1a3.1 3.1 0 00-2.9 2.8c-.1.3-.1.7-.1 1v6.4h-2.2v-8.2zm8.3-9.4h2.2v17.6h-2.2V38.7zm16.2 0v14.5c0 1 0 2.1.1 3.1h-2l-.1-2.1c-.8 1.5-2.4 2.4-4.1 2.4-2.9 0-5.1-2.5-5.1-6.1 0-4 2.5-6.5 5.4-6.5 1.5-.1 2.9.6 3.7 1.8v-7.1h2.1zm-2.2 10.5c0-.3 0-.6-.1-.9-.3-1.5-1.6-2.5-3.2-2.5-2.3 0-3.6 2-3.6 4.6 0 2.4 1.2 4.4 3.6 4.4 1.5 0 2.9-1.1 3.2-2.6.1-.3.1-.7.1-1v-2zm22.9 6.6c-1.4.6-2.9.8-4.4.8-4.7 0-8.3-3-8.3-8.5 0-5.2 3.6-8.8 8.7-8.8 1.4-.1 2.7.2 4 .7l-.5 1.8c-1.1-.5-2.2-.7-3.4-.7-3.9 0-6.5 2.5-6.5 7 0 4.1 2.4 6.7 6.4 6.7 1.2 0 2.4-.2 3.5-.7l.5 1.7zm9.1.6l-.2-1.5h-.1c-.9 1.2-2.2 1.8-3.7 1.8-1.9.1-3.5-1.3-3.7-3.2v-.3c0-2.9 2.6-4.5 7.2-4.5v-.2c.2-1.4-.8-2.6-2.1-2.8h-.6c-1.1 0-2.2.3-3.1.9l-.5-1.4c1.2-.7 2.6-1.1 4-1.1 3.7 0 4.6 2.5 4.6 5v4.5c0 1 .1 1.9.2 2.9l-2-.1zm-.3-6.2c-2.4 0-5.1.4-5.1 2.7 0 1.1.8 2 1.9 2.1h.2c1.3 0 2.5-.8 2.9-2 .1-.2.1-.5.1-.7v-2.1zm5.7-2.6c0-1.2 0-2.3-.1-3.3h1.9l.1 2h.1a4 4 0 013.8-2.2c1.5 0 2.9 1 3.4 2.4a7 7 0 011.3-1.7c.8-.6 1.7-.9 2.7-.8 1.6 0 4 1 4 5.2v7.1h-2.1v-6.8c0-2.3-.8-3.7-2.6-3.7-1.2.1-2.2.9-2.6 2-.1.4-.2.7-.2 1.1v7.4h-2.1v-7.2c0-1.9-.8-3.3-2.5-3.3-1.7.2-2.9 1.6-2.9 3.3v7.3h-2.1l-.1-8.8zm20.7.6c0-1.5 0-2.8-.1-4h2l.1 2.1c.9-1.5 2.5-2.4 4.3-2.3 2.9 0 5.1 2.5 5.1 6.1 0 4.3-2.6 6.5-5.5 6.5-1.5.1-2.9-.7-3.7-1.9v6.6H194V48.2zm2.2 3.2a3.42 3.42 0 003.4 3.5c2.3 0 3.7-1.9 3.7-4.6 0-2.4-1.3-4.5-3.6-4.5-1.6.1-2.9 1.2-3.3 2.7-.1.3-.1.6-.1.9l-.1 2zm22 1.7c0 1.2 0 2.3.1 3.3h-1.9l-.1-2a4.4 4.4 0 01-4 2.2c-1.9 0-4.1-1-4.1-5.3v-7h2.2V51c0 2.3.7 3.8 2.7 3.8 1.3 0 2.4-.8 2.9-2 .1-.4.2-.7.2-1.1v-7.4h2.2l-.2 8.8zm3.4 1c.9.5 1.9.8 2.9.9 1.6 0 2.3-.8 2.3-1.8s-.6-1.6-2.2-2.2c-2.2-.8-3.2-2-3.2-3.4 0-2 1.6-3.5 4.1-3.5 1 0 2.1.2 3 .7l-.5 1.6c-.7-.5-1.6-.7-2.5-.7-.9-.1-1.8.5-2 1.4v.2c0 .9.7 1.4 2.3 2 2.1.8 3.2 1.8 3.2 3.6 0 2.1-1.6 3.6-4.5 3.6-1.2 0-2.3-.3-3.4-.8l.5-1.6z" class="st1"/></svg>