<svg xmlns="http://www.w3.org/2000/svg" id="Layer_1" width="200" height="65.7" x="0" y="0" version="1.1" viewBox="0 0 200 65.7" xml:space="preserve"><style>.st1{fill:#1e407c}</style><g id="XMLID_16_"><g id="XMLID_30_"><path id="XMLID_31_" fill="#fff" d="M29.79 65.73C16.6 57.9 0 46.51 0 26.41V5.18C6.08 2.88 15.47 0 29.79 0c14.48 0 24.43 3.13 29.79 5.18V26.4c0 20.27-17.26 31.96-29.8 39.32z"/></g><g id="XMLID_17_"><path id="XMLID_23_" d="M38.75 38.24c0-.45.37-1.15.37-1.78 0-.74-.91-.98-1.62-1.07-1.49-.2-1.98-.14-1.98-.47 0-.23.2-.46.47-.85.4-.58 1.35-.8 1.86-.87.67-.09 1.41-.18 2.3-.18 1 0 1.84.15 2.23.22.9.16 1.05.54 1.05.97v.42c0 .44-.35.66-.99.8l-.49.1c-.46.09-1.03.18-1.24.76-.43 1.26-1.19 2.24-1.75 2.21-.1 0-.2-.08-.2-.26zm1.31-20.17c-.05-.03-.24-.1-.24-.3 0-.21.16-.44.48-.88.75-1 1.77-2.22 2.15-2.22.18 0 .3.13.52.55.14.26.25.68.25 1.09 0 1.33-.46 2.26-1.17 3.32-.35-.34-1.01-1-1.98-1.56zm-21.88 2.48c.33 0 .59-.22 1.1-.78 1.13-1.25 2.22-1.42 2.22-1.96 0-.23-.15-.47-.31-.72-1.2-1.88-1.72-2.9-2.44-4.27-.26-.5-.6-.83-.86-.83-.42 0-.86.48-1.11.9a3.93 3.93 0 00-.72 1.85c0 .92.22 2.58.6 3.65.41 1.15 1 2.16 1.52 2.16zm13.6 4.36c0-.78-.88-1.92-2.4-1.92a2.95 2.95 0 00-2.67 1.82c.32.63.64 1.3 1.94 1.7.17.05.35.05.35.2 0 .2-.22.31-.69.31-1.47 0-2.35-.6-2.74-1.11-.39.05-.83.2-1.38.22-.45.02-.66-.28-.66-.69 0-.26.08-.54.23-.86l.25-.49c.23-.45.58-1.45 1.92-2.21l.78-.46a3.9 3.9 0 012.24-.56h.67c1.09 0 1.64.3 2.12.71.98.82 1.51 1.27 1.51 1.88 0 .67-.03 1.19-.57 1.9-.47.6-1.15 1.01-1.59 1.01-.12 0-.16-.06-.16-.13 0-.1.1-.14.21-.23.36-.3.53-.8.64-1.1zm6.54 20.88c-.25.06-.75.18-2.98.18-3.38 0-3.96-.83-3.96-1.49 0-1.1 4.85-1.87 6.76-1.87 1.83 0 2.64.59 2.64 1.04 0 .51-.83 1.74-2.46 2.14zm-19.5 9.9c3.52 2.74 7.29 5.17 10.97 7.37.03-3.31-.07-5.27 2.17-7.61l2.69-2.8c.63-.65 1.15-1.14 1.45-1.14.22 0 .31.1.31.4 0 .3.13 1.38.8 2.68.85 1.62 2.08 1.82 2.48 1.92 9.6-7.23 17.63-16.7 17.63-30.15V6.75c-2.37-.8-12.1-4.54-27.53-4.54S4.63 5.94 2.26 6.75v19.6c0 5.92 1.55 11.07 4.1 15.59.26-2.73 2.1-4.02 2.1-6.7 0-1.86-.53-3.04-.53-4.6 0-2.83 3.82-8.65 5.8-11.02.06-.07.19-.24.35-.24.14 0 .25.1.33.24.2.3.29.47.5.47.22 0 .3-.12.3-.32 0-.49-.56-1.31-.56-4.52 0-2.25.52-2.73 1.92-4.1.25-.24 1.03-1 1.78-1 .83 0 1.24.5 1.75 1.01.86.88 2.07 2.44 2.26 2.68.06.07.1.14.22.14.4 0 .74-.12 2.47-.12 3.15 0 7.9.5 10.34 1.3 1.26.4 1.52.69 1.85.69.17 0 .18-.11.18-.2 0-.15-.33-.4-.33-.63 0-.14.12-.24.23-.3 1.82-.98 3.38-1.72 4.8-1.72.83 0 1.23.71 1.58 1.42.27.56.57 1.3.57 2.06 0 1.93-.74 3.1-1.33 3.93.28.28.68.72.92 1.01.44.52.96 1.19.96 1.89 0 .3-.15.78-.24 1.15-.03.17-.18.51-.48.5-.26 0-.33-.3-.34-.55v-.19c0-.55-.15-1.3-.67-1.83-.6-.61-1.13-1.05-1.82-1.05h-.24a2.5 2.5 0 00-1.94.8c-.34.32-.6.76-.6 1.36 0 .34.23.74.53 1.36.19.36.65 1.23.9 1.67.23.4.52.53.84.53.78 0 1.46-.1 1.46-.34 0-.07-.03-.12-.14-.12l-.25.01c-1.02 0-1.57-1.3-2.09-2.49.4-.38.84-.77 1.64-.77 1.02 0 1.7.69 1.7 1.58 0 .44-.14.81-.22.98a.47.47 0 00-.07.18c0 .14.18.17.46.23l.4.1c.3.1.62.35.76.71l.34.93c.17.5.44 1.24.44 2.12 0 .9-.06 1.17-.3 2.08-.32 1.16-.46 1.6-.51 2.24.1.2.11.26.16.38.18.37.4 1.04.4 1.77v.6c0 1.18-.46 2.08-.96 2.76l-1.28 1.7c-.2.24-.49.42-.8.42-.15 0-.33-.05-.5-.1l-.8-.2c-.68-.16-.94-.61-1.16-1.22l-.17-.43c-.16-.42-.26-.68-.52-.68-.2 0-.38.12-.57.41-.69 1.04-1.06 1.41-2.27 1.7-.42.11-1.27.29-1.75.4-.72.16-2.01.5-2.74.5l-.48-.03c-1-.14-1.7-.2-2.93-1.68-1.7-2.02-1.52-2.31-1.63-5.04 0-.31-.1-.7-.42-.7-.29 0-.41.59-.52 1.41-.12.97-.34 1.97-.81 1.97-.34 0-.56-.05-1.07-.22l-2.96-.99c-1.1-.36-2.15-.65-2.58-1.62-.2-.46-.57-1.31-.75-1.76-.14-.31-.23-.47-.44-.47-.29 0-.35.34-.39.62l-.15 1.47c-.17 1.9-.55 2.72-1.35 3.78l-1.13 1.52c-.85 1.12-1.36 2.27-1.33 4.44v1.32c.08 3.23.9 4.82 6.34 9.16z" class="st1"/><path id="XMLID_18_" fill="#96bee6" d="M44.41 27.13c.1.24.3.8.34.93.17.5.44 1.23.44 2.12 0 .9-.06 1.16-.3 2.07-.32 1.17-.46 1.61-.51 2.25-.09-.18-1.75-3.04-1.87-3.27a1.5 1.5 0 01-.24-.73c0-.29.13-.47.48-.69.22-.13.49-.29.68-.38.85-.44 1.05-.98 1.05-1.56 0-.24-.03-.49-.07-.74zM37.2 31.7c.09.23.16.48.16.67 0 .43-.1.56-.34.82l-.44.4c-.24.11-.45.27-.6.48-.26.39-.46.62-.46.85 0 .07.02.12.07.16a1.17 1.17 0 01-.46-.95c0-.3.1-.46.1-.74 0-.24-.07-.47-.11-.6-.46-1.55-1.23-3.37-1.7-4.62-.5-1.26-.88-1.96-1.43-1.96-.3 0-.57.15-.9.15.45 0 1.12-.4 1.59-1.01a2.7 2.7 0 00.57-1.9c0-.3-.12-.54-.34-.81a9.2 9.2 0 011.6 2.6c1.04 2.2 1.94 4.59 2.69 6.46zM12.48 46.53v-1.32c-.02-2.17.49-3.32 1.33-4.44l1.13-1.52c.8-1.06 1.19-1.87 1.35-3.78l.16-1.47c.03-.28.1-.62.39-.62.2 0 .3.16.43.47l.75 1.76c.43.97 1.48 1.26 2.58 1.62l2.96.99c.51.17.74.22 1.07.22.47 0 .7-1 .82-1.97.1-.82.22-1.4.5-1.4.33 0 .43.38.44.68.1 2.74-.08 3.02 1.62 5.05 1.23 1.47 1.94 1.54 2.93 1.68-.37-.11-.84-.54-.84-1.43v-.99c0-.49.06-.99.3-1.55.12-.27.25-.75.38-1.04.21-.5.1-.63.1-.99 0-.37-.11-.74-.4-1.63l-.56-1.68c-.62-1.72-.87-2.12-2.92-2.4-.66-.08-3.53-.49-4.14-.57-2.3-.33-4.1-.44-5.04-1.98-1.12-1.84-1-4.09-2.08-4.09-.51 0-.79.57-.79 1.4 0 .88.34 2.3.34 4.77 0 2.13-.2 2.73-1.45 4.3-.32.4-.75 1-1.03 1.35-.93 1.16-1.34 1.82-1.28 3.17.14 3.5.7 6.08.95 7.41zm23.48 8.24c.07-.86.45-2.28.45-2.86 0-.3-.1-.4-.3-.4-.31 0-.83.49-1.46 1.15l-2.69 2.79c-2.24 2.34-2.14 4.3-2.17 7.6 2.5-1.5 4.77-2.94 6.46-4.09-.25-1.38-.46-2.37-.3-4.2z"/></g></g><g id="XMLID_1_"><path id="XMLID_2_" d="M71.56 16.81h-1.8v-2.65h8.38c4.4 0 6.7 2.3 6.7 5.6 0 3.9-3.08 5.6-6.7 5.6h-2.77v4.38h1.8v2.66h-7.4v-2.66h1.8V16.8zm6.19 5.9c1.9 0 3.14-1.1 3.14-2.95 0-1.68-1.09-2.95-3.2-2.95h-2.32v5.9h2.38zm11.74 3.7c.1 2.16 1.78 3.48 4.33 3.48 2.25 0 3.63-.62 4.22-.86v2.82c-.55.22-2.07.86-5.03.86-5.26 0-7.48-3.28-7.48-7.06 0-4.25 2.58-7.2 6.86-7.2 4.69 0 6.59 3.55 6.59 7.95h-9.49zm5.53-2.5c0-1.89-1.07-2.95-2.76-2.95-1.67 0-2.64 1.09-2.8 2.94h5.56zm95.5 2.5c.1 2.16 1.76 3.48 4.32 3.48 2.25 0 3.63-.62 4.22-.86v2.82c-.55.22-2.07.86-5.03.86-5.26 0-7.48-3.28-7.48-7.06 0-4.25 2.58-7.2 6.86-7.2 4.69 0 6.59 3.55 6.59 7.95h-9.49zm5.52-2.5c0-1.89-1.07-2.95-2.76-2.95-1.67 0-2.64 1.09-2.8 2.94h5.56zm-93.68-2.48h-1.77v-2.66h5l.1 1.78h.06a4.78 4.78 0 014.19-2.1c3.45 0 5.27 2.44 5.27 5.44v5.85h1.57v2.66h-6.7v-2.66h1.48v-5.22c0-1.9-1.05-2.94-2.78-2.94-1.57 0-2.77.88-2.77 2.94v5.22h1.56v2.66h-6.7v-2.66h1.5v-8.31zm17.77 0h-1.77v-2.66h5l.1 1.78h.06a4.78 4.78 0 014.19-2.1c3.46 0 5.27 2.44 5.27 5.44v5.85h1.57v2.66h-6.7v-2.66h1.48v-5.22c0-1.9-1.05-2.94-2.78-2.94-1.57 0-2.77.88-2.77 2.94v5.22h1.56v2.66h-6.7v-2.66h1.5v-8.31zm58.17-5.58h3.65v2.92h3.65v2.65h-3.65v6.08c0 1.82.64 2.4 2.15 2.4.57 0 1.34-.16 1.63-.21v2.59c-.3.09-1.63.43-3 .43-2.69 0-4.43-1.44-4.43-3.84v-7.45h-1.85v-2.65h1.85v-2.92zm-24.59 0h3.65v2.92h3.65v2.65h-3.65v6.08c0 1.82.64 2.4 2.15 2.4.57 0 1.34-.16 1.63-.21v2.59c-.3.09-1.63.43-3 .43-2.69 0-4.43-1.44-4.43-3.84v-7.45h-1.85v-2.65h1.85v-2.92zm17.33 7.87c0-1.88-.92-2.6-2.76-2.6-1.17 0-2.02.3-2.26.38v1.83h-2.96v-3.47c.5-.28 2.68-1.4 5.18-1.4 3.8 0 6.24 1.54 6.24 5.36v5.92h1.4v2.66h-4.4l-.11-1.86h-.06c-.27.38-1.26 2.17-4.34 2.17-3.07 0-4.56-1.82-4.56-3.96 0-2.6 2-4.38 7-4.38h1.63v-.65zm-1.07 2.9c-2.97 0-3.9.62-3.9 1.79 0 .8.57 1.64 2 1.64 1.46 0 2.92-1.14 2.92-3.44h-1.02zm-23.6-9.68a7.87 7.87 0 00-2.33-.44c-2.12 0-2.97 1.15-2.97 2.17 0 1.33.99 1.94 2.13 2.23l1.81.47c2.55.68 5.37 1.76 5.37 5.54 0 3.47-2.22 5.8-7.15 5.8-1.9 0-3.89-.2-6.22-1.02v-4.82h3.28v2.36c.52.14 2 .51 3.26.51 1.94 0 2.87-.8 2.87-2.19 0-1.14-.64-1.97-2.97-2.6l-1.56-.42c-3.56-.96-4.78-2.68-4.78-5.5 0-2.89 1.93-5.19 6.84-5.19 2.1 0 4.2.37 5.7.97v4.35h-3.28v-2.22z" class="st1"/></g></svg>