<?xml version="1.0" encoding="utf-8"?>
<!-- Generator: Adobe Illustrator 22.0.1, SVG Export Plug-In . SVG Version: 6.00 Build 0)  -->
<svg version="1.1" id="Layer_1" xmlns="http://www.w3.org/2000/svg" xmlns:xlink="http://www.w3.org/1999/xlink" x="0px" y="0px"
	 width="61px" height="61px" viewBox="0 0 61 61" style="enable-background:new 0 0 61 61;" xml:space="preserve">
<style type="text/css">
	.st0{fill:#376AD3;}
</style>
<title>search</title>
<g>
	<path class="st0" d="M60.1,55.5c0.2,0.2,0.4,0.5,0.4,0.9c0,0.4-0.1,0.7-0.4,1.1L57.5,60c-0.3,0.3-0.7,0.5-1.1,0.5
		c-0.4,0-0.7-0.2-0.9-0.5L41.2,45.9c-0.2-0.3-0.4-0.6-0.4-0.9v-1.6c-2.2,1.9-4.6,3.3-7.4,4.4s-5.6,1.6-8.6,1.6
		c-4.5,0-8.5-1.1-12.2-3.3c-3.7-2.2-6.7-5.1-8.8-8.8s-3.3-7.8-3.3-12.2s1.1-8.5,3.3-12.2S8.9,6,12.6,3.8s7.8-3.3,12.2-3.3
		s8.5,1.1,12.2,3.3c3.7,2.2,6.7,5.1,8.8,8.8c2.2,3.7,3.3,7.8,3.3,12.2c0,3-0.5,5.8-1.6,8.6s-2.5,5.2-4.4,7.4h1.6
		c0.4,0,0.7,0.1,0.9,0.4L60.1,55.5z M24.9,43.6c3.4,0,6.5-0.8,9.4-2.5c2.9-1.7,5.2-4,6.9-6.9c1.7-2.9,2.5-6,2.5-9.4
		s-0.8-6.5-2.5-9.4c-1.7-2.9-4-5.2-6.9-6.9s-6-2.5-9.4-2.5S18.4,7,15.5,8.6s-5.2,4-6.9,6.9s-2.5,6-2.5,9.4s0.8,6.5,2.5,9.4
		s4,5.2,6.9,6.9C18.4,42.8,21.5,43.6,24.9,43.6z"/>
</g>
</svg>
