<svg version="1.1" id="Layer_1" xmlns="http://www.w3.org/2000/svg" xmlns:xlink="http://www.w3.org/1999/xlink" x="0px" y="0px"
	 viewBox="0 0 40 40" style="enable-background:new 0 0 40 40;" xml:space="preserve">
  <defs>
    <style>.cls-1{fill:red;}.cls-2{fill:#fff;}</style>
  </defs>
  <title>youtube</title>
  <g id="Layer_2" data-name="Layer 2">
    <g id="Layer_1-2" data-name="Layer 1">
      <rect id="_Path_11" data-name=" Path 11" class="cls-1" width="40" height="40"/>
      <path class="cls-2" d="M34.35,12.75a3.78,3.78,0,0,0-2.65-2.67C29.36,9.45,20,9.45,20,9.45s-9.36,0-11.7.63a3.78,3.78,0,0,0-2.65,2.67A39.7918,39.7918,0,0,0,5,20a39.7877,39.7877,0,0,0,.62,7.25,3.78,3.78,0,0,0,2.65,2.67c2.34.63,11.7.63,11.7.63s9.36,0,11.7-.63a3.78,3.78,0,0,0,2.65-2.67A39.7893,39.7893,0,0,0,35,20,39.7926,39.7926,0,0,0,34.35,12.75ZM16.94,24.45v-8.9L24.76,20Z"/>
    </g>
  </g>
</svg>