<svg xmlns="http://www.w3.org/2000/svg" viewBox="0 0 35.22 35.22"><defs><style>.cls-1{fill:#9d2026;}.cls-2{fill:#fff;}</style></defs><title>Pinterest</title><g id="Layer_2" data-name="Layer 2"><g id="Layer_1-2" data-name="Layer 1"><rect class="cls-1" width="35.22" height="35.22"/><path class="cls-2" d="M31.38,17.61A13.77,13.77,0,1,1,17.61,3.84,13.77,13.77,0,0,1,31.38,17.61"/><path class="cls-1" d="M17.59,4.88A12.73,12.73,0,0,0,13,29.47a12.43,12.43,0,0,1,0-3.66l1.49-6.33a4.6,4.6,0,0,1-.38-1.89c0-1.76,1-3.1,2.3-3.1A1.6,1.6,0,0,1,18,16.27a25.54,25.54,0,0,1-1.06,4.23,1.84,1.84,0,0,0,1.89,2.3c2.25,0,4-2.38,4-5.82a5,5,0,0,0-5.31-5.19,5.53,5.53,0,0,0-5.76,5.53,5,5,0,0,0,1,2.91.34.34,0,0,1,.09.36c-.11.4-.32,1.28-.36,1.45s-.19.28-.43.17c-1.59-.74-2.59-3.06-2.59-4.93,0-4,2.91-7.71,8.42-7.71,4.42,0,7.84,3.15,7.84,7.35,0,4.38-2.76,7.93-6.61,7.93a3.39,3.39,0,0,1-2.91-1.47s-.64,2.42-.79,3a15.11,15.11,0,0,1-1.57,3.34,13,13,0,0,0,3.76.57,12.71,12.71,0,1,0,0-25.42Z"/></g></g></svg>