<?xml version="1.0" encoding="utf-8"?>
<!-- Generator: Adobe Illustrator 21.1.0, SVG Export Plug-In . SVG Version: 6.00 Build 0)  -->
<svg version="1.1" id="Layer_1" xmlns="http://www.w3.org/2000/svg" xmlns:xlink="http://www.w3.org/1999/xlink" x="0px" y="0px"
	 viewBox="0 0 35.2 35.2" style="enable-background:new 0 0 35.2 35.2;" xml:space="preserve">
<style type="text/css">
	.st0{fill:#0063DB;}
	.st1{fill:url(#SVGID_1_);}
	.st2{fill:#DDDDE0;}
	.st3{fill:#FF0084;}
</style>
<title>Pinterest</title>
<g>
	<rect x="0" y="0" class="st0" width="35.2" height="35.2"/>
	<g>
		<g>
			<g>
				
					<radialGradient id="SVGID_1_" cx="-1256.4565" cy="1019.1891" r="23.2734" gradientTransform="matrix(-0.9517 0 0 0.9517 -1177.8716 -963.7315)" gradientUnits="userSpaceOnUse">
					<stop  offset="1.212120e-02" style="stop-color:#FDFDFD"/>
					<stop  offset="1" style="stop-color:#EAE9EC"/>
				</radialGradient>
				<path class="st1" d="M9.7,5.1h15.9c2.5,0,4.6,2.1,4.6,4.6v15.9c0,2.5-2.1,4.6-4.6,4.6H9.7c-2.5,0-4.6-2.1-4.6-4.6V9.7
					C5.2,7.2,7.2,5.1,9.7,5.1z"/>
			</g>
			<path class="st2" d="M25.5,30.1H9.7c-2.5,0-4.6-2.1-4.6-4.6V9.7c0-2.5,2.1-4.6,4.6-4.6h15.9c2.5,0,4.6,2.1,4.6,4.6v15.9
				C30.1,28.1,28.1,30.1,25.5,30.1z M9.7,5.9c-2.1,0-3.8,1.7-3.8,3.8v15.9c0,2.1,1.7,3.8,3.8,3.8h15.9c2.1,0,3.8-1.7,3.8-3.8V9.7
				c0-2.1-1.7-3.8-3.8-3.8C25.6,5.9,9.7,5.9,9.7,5.9z"/>
		</g>
		<g>
			<circle class="st0" cx="13.1" cy="17.6" r="3.4"/>
			<circle class="st3" cx="22.2" cy="17.6" r="3.4"/>
		</g>
	</g>
</g>
</svg>
